<svg xmlns="http://www.w3.org/2000/svg" xmlns:xlink="http://www.w3.org/1999/xlink" version="1.1" width="256" height="256" viewBox="0 0 256 256" xml:space="preserve">

<defs>
</defs>
<g style="stroke: none; stroke-width: 0; stroke-dasharray: none; stroke-linecap: butt; stroke-linejoin: miter; stroke-miterlimit: 10; fill: none; fill-rule: nonzero; opacity: 1;" transform="translate(1.4065934065934016 1.4065934065934016) scale(2.81 2.81)" >
	<path d="M 66.043 88.666 c -0.43 -0.045 -1 -0.131 -1.392 -0.219 c -0.409 -0.085 -0.82 -0.165 -1.226 -0.263 c -0.816 -0.184 -1.627 -0.39 -2.428 -0.625 c -1.605 -0.463 -3.2 -0.966 -4.769 -1.538 c -3.143 -1.131 -6.229 -2.417 -9.252 -3.837 c -3.037 -1.396 -6 -2.945 -8.922 -4.576 c -2.927 -1.624 -5.786 -3.376 -8.582 -5.236 c -5.612 -3.693 -10.938 -7.873 -15.834 -12.647 c -2.421 -2.412 -4.734 -4.981 -6.79 -7.812 c -2.054 -2.825 -3.882 -5.914 -5.17 -9.344 c -1.286 -3.417 -1.972 -7.252 -1.556 -11.109 c 0.216 -1.919 0.706 -3.815 1.433 -5.592 c 0.739 -1.778 1.695 -3.41 2.81 -4.926 c 1.126 -1.525 2.292 -2.768 3.562 -4.045 c 1.262 -1.259 2.664 -2.42 4.157 -3.481 c 2.992 -2.101 6.632 -3.649 10.48 -3.946 c 3.847 -0.255 7.63 0.696 10.834 2.324 c 3.232 1.618 6.02 3.774 8.523 6.122 c 4.983 4.735 6.94 7.215 10.639 12.751 l 0 0 c 0.201 -5.846 0.552 -8.046 2.072 -13.751 c 0.371 -1.426 0.855 -2.826 1.368 -4.218 c 0.543 -1.383 1.184 -2.734 1.927 -4.045 c 0.769 -1.296 1.671 -2.536 2.75 -3.651 c 1.082 -1.107 2.379 -2.066 3.857 -2.707 c 1.475 -0.636 3.102 -0.979 4.717 -0.957 c 1.613 0.015 3.207 0.326 4.685 0.847 c 1.471 0.511 2.926 1.188 4.192 1.942 c 0.652 0.373 1.353 0.811 2.014 1.249 l 0.948 0.766 c 0.324 0.251 0.63 0.518 0.901 0.815 c 2.321 2.268 3.956 5.057 5.127 7.93 c 1.198 2.876 1.876 5.886 2.341 8.885 c 0.91 6.021 0.579 12.068 -0.296 17.95 c -0.848 5.898 -2.444 11.64 -4.463 17.19 c -2.108 5.52 -4.641 10.869 -7.761 15.852 c -0.784 1.242 -1.551 2.492 -2.419 3.677 l -1.264 1.797 l -1.329 1.748 c -0.877 1.169 -1.85 2.267 -2.783 3.385 c -0.439 0.545 -1.028 1.145 -1.549 1.694 L 66.043 88.666 z" style="stroke: none; stroke-width: 1; stroke-dasharray: none; stroke-linecap: butt; stroke-linejoin: miter; stroke-miterlimit: 10; fill: rgb(255,77,238); fill-rule: nonzero; opacity: 1;" transform=" matrix(1 0 0 1 0 0) " stroke-linecap="round" />
</g>
</svg>