<svg xmlns="http://www.w3.org/2000/svg" xmlns:xlink="http://www.w3.org/1999/xlink" version="1.1" width="256" height="256" viewBox="0 0 256 256" xml:space="preserve">

<defs>
</defs>
<g style="stroke: none; stroke-width: 0; stroke-dasharray: none; stroke-linecap: butt; stroke-linejoin: miter; stroke-miterlimit: 10; fill: none; fill-rule: nonzero; opacity: 1;" transform="translate(1.4065934065934016 1.4065934065934016) scale(2.81 2.81)" >
	<path d="M 29.623 3.593 c -3.236 -3.655 -9.363 -4.109 -14.109 0.559 C 10.768 -0.515 4.64 -0.062 1.405 3.593 C -2.037 7.482 -0.591 14.739 3.94 20.538 c 2.297 2.94 7.97 7.727 11.574 9.737 c 3.604 -2.01 9.277 -6.798 11.574 -9.737 C 31.619 14.739 33.065 7.482 29.623 3.593 z" style="stroke: none; stroke-width: 1; stroke-dasharray: none; stroke-linecap: butt; stroke-linejoin: miter; stroke-miterlimit: 10; fill: rgb(254,85,120); fill-rule: nonzero; opacity: 1;" transform=" matrix(2.81 0 0 2.81 1.4065934065934016 1.4065934065934016) " stroke-linecap="round" />
	<path d="M 23.655 14.879 c -1.867 -2.109 -5.403 -2.371 -8.142 0.322 c -2.738 -2.693 -6.274 -2.432 -8.142 -0.322 c -1.986 2.244 -1.152 6.431 1.463 9.778 c 1.325 1.696 4.599 4.459 6.679 5.619 c 2.079 -1.16 5.353 -3.923 6.679 -5.619 C 24.807 21.31 25.641 17.122 23.655 14.879 z" style="stroke: none; stroke-width: 1; stroke-dasharray: none; stroke-linecap: butt; stroke-linejoin: miter; stroke-miterlimit: 10; fill: rgb(227,66,99); fill-rule: nonzero; opacity: 1;" transform=" matrix(2.81 0 0 2.81 1.4065934065934016 1.4065934065934016) " stroke-linecap="round" />
</g>
</svg>